<svg xmlns="http://www.w3.org/2000/svg" viewBox="0 0 1200 600">
  <!-- Sfondo base con gradiente leggero -->
  <defs>
    <linearGradient id="backgroundGradient" x1="0%" y1="0%" x2="100%" y2="100%">
      <stop offset="0%" stop-color="#e6f2eb" />
      <stop offset="100%" stop-color="#e6f0f5" />
    </linearGradient>
    <filter id="soft-blur" x="-10%" y="-10%" width="120%" height="120%">
      <feGaussianBlur in="SourceGraphic" stdDeviation="5" />
    </filter>
  </defs>
  
  <!-- Sfondo base -->
  <rect width="100%" height="100%" fill="url(#backgroundGradient)" />
  
  <!-- Elementi decorativi leggeri -->
  
  <!-- Libro aperto -->
  <g transform="translate(200, 300)" opacity="0.1">
    <path d="M0,0 C20,-20 150,-25 150,0 L150,100 C150,125 20,120 0,100 Z" fill="#2c5e43" />
    <path d="M300,0 C280,-20 150,-25 150,0 L150,100 C150,125 280,120 300,100 Z" fill="#2c5e43" />
    <line x1="150" y1="0" x2="150" y2="100" stroke="#2c5e43" stroke-width="2" />
  </g>
  
  <!-- Penna stilografica -->
  <g transform="translate(850, 200) rotate(-45)" opacity="0.12">
    <rect x="0" y="0" width="15" height="120" rx="3" fill="#2c5e43" />
    <path d="M0,0 L15,0 L7.5,-30 Z" fill="#2c5e43" />
  </g>
  
  <!-- Nuvole di pensiero -->
  <g transform="translate(700, 150)" opacity="0.08" filter="url(#soft-blur)">
    <circle cx="0" cy="0" r="40" fill="#4e7a61" />
    <circle cx="50" cy="-20" r="30" fill="#4e7a61" />
    <circle cx="80" cy="10" r="25" fill="#4e7a61" />
  </g>
  
  <!-- Carta volante -->
  <g transform="translate(300, 150) rotate(15)" opacity="0.07">
    <rect x="0" y="0" width="100" height="130" rx="5" fill="#4e7a61" />
    <line x1="15" y1="30" x2="85" y2="30" stroke="#2c5e43" stroke-width="1.5" />
    <line x1="15" y1="50" x2="85" y2="50" stroke="#2c5e43" stroke-width="1.5" />
    <line x1="15" y1="70" x2="85" y2="70" stroke="#2c5e43" stroke-width="1.5" />
    <line x1="15" y1="90" x2="60" y2="90" stroke="#2c5e43" stroke-width="1.5" />
  </g>
  
  <!-- Barca a vela (simbolo di viaggio) -->
  <g transform="translate(950, 400)" opacity="0.08">
    <path d="M0,50 L100,50 L50,0 Z" fill="#2c5e43" />
    <rect x="45" y="0" width="5" height="50" fill="#2c5e43" />
    <path d="M0,50 C20,70 80,70 100,50" fill="none" stroke="#2c5e43" stroke-width="2" />
  </g>
  
  <!-- Onde stilizzate -->
  <g transform="translate(100, 500)" opacity="0.05">
    <path d="M0,0 C50,-20 100,20 150,0 C200,-20 250,20 300,0 C350,-20 400,20 450,0 C500,-20 550,20 600,0" fill="none" stroke="#2c5e43" stroke-width="8" stroke-linecap="round" />
  </g>
  
  <!-- Piccole stelle sparse (simbolo di pensieri) -->
  <g opacity="0.06">
    <circle cx="150" cy="100" r="3" fill="#2c5e43" />
    <circle cx="400" cy="80" r="2" fill="#2c5e43" />
    <circle cx="600" cy="150" r="4" fill="#2c5e43" />
    <circle cx="800" cy="120" r="2" fill="#2c5e43" />
    <circle cx="900" cy="250" r="3" fill="#2c5e43" />
    <circle cx="300" cy="300" r="2" fill="#2c5e43" />
    <circle cx="750" cy="350" r="3" fill="#2c5e43" />
    <circle cx="500" cy="400" r="2" fill="#2c5e43" />
    <circle cx="200" cy="450" r="3" fill="#2c5e43" />
    <circle cx="1000" cy="350" r="2" fill="#2c5e43" />
  </g>
  
  <!-- Sole stilizzato (simbolo di illuminazione) -->
  <g transform="translate(900, 100)" opacity="0.07">
    <circle cx="0" cy="0" r="30" fill="#4e7a61" />
    <g>
      <line x1="-50" y1="0" x2="-35" y2="0" stroke="#4e7a61" stroke-width="3" />
      <line x1="35" y1="0" x2="50" y2="0" stroke="#4e7a61" stroke-width="3" />
      <line x1="0" y1="-50" x2="0" y2="-35" stroke="#4e7a61" stroke-width="3" />
      <line x1="0" y1="35" x2="0" y2="50" stroke="#4e7a61" stroke-width="3" />
      <line x1="-35" y1="-35" x2="-25" y2="-25" stroke="#4e7a61" stroke-width="3" />
      <line x1="25" y1="25" x2="35" y2="35" stroke="#4e7a61" stroke-width="3" />
      <line x1="-35" y1="35" x2="-25" y2="25" stroke="#4e7a61" stroke-width="3" />
      <line x1="25" y1="-25" x2="35" y2="-35" stroke="#4e7a61" stroke-width="3" />
    </g>
  </g>
  
  <!-- Piccolo orologio (simbolo del tempo) -->
  <g transform="translate(150, 350)" opacity="0.09">
    <circle cx="0" cy="0" r="25" fill="none" stroke="#2c5e43" stroke-width="2" />
    <line x1="0" y1="0" x2="0" y2="-15" stroke="#2c5e43" stroke-width="2" />
    <line x1="0" y1="0" x2="10" y2="5" stroke="#2c5e43" stroke-width="2" />
  </g>
</svg>
